<?xml version="1.0" encoding="utf-8"?>
<!-- Generator: Adobe Illustrator 25.4.1, SVG Export Plug-In . SVG Version: 6.00 Build 0)  -->
<svg version="1.1" xmlns="http://www.w3.org/2000/svg" xmlns:xlink="http://www.w3.org/1999/xlink" x="0px" y="0px"
	 viewBox="0 0 100 100" style="enable-background:new 0 0 100 100;" xml:space="preserve">
<style type="text/css">
	.st0{display:none;}
	.st1{display:inline;fill:#FFFFFF;}
	.st2{display:inline;fill:#F2F4F3;}
	.st3{display:inline;fill:#78CAD4;}
	.st4{display:inline;fill:#56BB92;}
	.st5{display:inline;fill:#00524B;}
	.st6{display:inline;fill:#12221D;}
	.st7{fill:none;stroke:#FFFFFF;stroke-miterlimit:10;}
	.st8{display:inline;}
	.st9{fill:#00524B;stroke:#FFFFFF;stroke-width:2;stroke-miterlimit:10;}
	.st10{fill:#56BB92;stroke:#FFFFFF;stroke-width:2;stroke-miterlimit:10;}
	.st11{fill:#00524B;}
	.st12{fill:#56BB92;}
	.st13{fill:#FFFFFF;}
</style>
<g id="Colors" class="st0">
</g>
<g id="Stroke">
	<g>
		<g>
			<polygon class="st7" points="60.9647,50 56.2434,58.1775 56.2434,91.6304 85,91.6304 			"/>
			<polygon class="st7" points="60.9647,50 85,8.3696 56.2434,8.3696 56.2434,41.8225 			"/>
			<polygon class="st7" points="56.2434,58.1775 60.9647,50 56.2434,41.8225 			"/>
		</g>
		<g>
			<path class="st7" d="M30.327,68.6768c9.9909-5.44,16.7714-16.0323,16.7714-28.2088C47.0984,22.7405,32.7275,8.3696,15,8.3696
				v33.7601L30.327,68.6768z"/>
			<path class="st7" d="M30.327,68.6768c-4.5546,2.4799-9.7761,3.8896-15.327,3.8896v19.064h28.5792L30.327,68.6768z"/>
			<path class="st7" d="M15,72.5664c5.5509,0,10.7724-1.4096,15.327-3.8896L15,42.1297V72.5664z"/>
		</g>
	</g>
</g>
<g id="Fill_-_dev" class="st0">
</g>
<g id="Fill" class="st0">
	<g class="st8">
		<polygon class="st11" points="57.92,58.7891 57.92,92.2811 85,92.2811 61.792,52.0824 59.6758,55.7477 		"/>
		<polygon class="st11" points="85,7.7189 57.92,7.7189 57.92,41.2119 59.6758,44.2533 61.792,47.9186 		"/>
		<polygon class="st12" points="59.2426,47.6666 57.92,45.3762 57.92,54.6248 59.2426,52.3345 60.5901,50.0005 		"/>
		<polygon class="st12" points="59.2426,52.3345 60.5903,50.0008 60.5901,50.0005 		"/>
		<polygon class="st12" points="60.5903,50.0002 59.2426,47.6666 60.5901,50.0005 		"/>
		
			<rect x="60.5901" y="50.0003" transform="matrix(0.5145 -0.8575 0.8575 0.5145 -13.4582 76.2312)" class="st12" width="0.0004" height="0.0004"/>
		<path class="st11" d="M46.3211,40.081C46.3211,22.585,32.3648,8.2872,15,7.7352v33.7956l15.2953,26.4921
			C40.2066,62.2194,46.3211,51.6056,46.3211,40.081z"/>
		<path class="st11" d="M28.9227,71.0984c-0.2462,0.1188-0.4923,0.2368-0.7412,0.3496c-0.3775,0.171-0.7591,0.3315-1.1425,0.4886
			c-0.2433,0.0997-0.4849,0.2025-0.7304,0.2965c-0.421,0.1613-0.847,0.3083-1.2741,0.453
			c-0.2116,0.0717-0.4207,0.1501-0.6336,0.2176c-0.6404,0.2031-1.2858,0.3906-1.9372,0.5561
			c-0.0348,0.0088-0.0703,0.015-0.1051,0.0237c-0.6188,0.1552-1.2422,0.2924-1.8692,0.4133
			c-0.2254,0.0434-0.4527,0.0755-0.6789,0.1145c-0.4393,0.0756-0.8787,0.1487-1.3209,0.2074
			c-0.2663,0.0353-0.5334,0.0614-0.8005,0.0905c-0.4062,0.0443-0.8125,0.0849-1.2204,0.1147
			c-0.2833,0.0207-0.5667,0.0354-0.8507,0.0491c-0.2062,0.01-0.4115,0.0295-0.6179,0.0357v17.7724h26.896"/>
		<path class="st12" d="M15,72.4104c0.1821-0.0059,0.3645-0.0081,0.5464-0.0171c0.2619-0.0128,0.5235-0.0273,0.7848-0.0466
			c0.3853-0.0284,0.7696-0.0663,1.1533-0.1083c0.2459-0.0269,0.4922-0.0515,0.7373-0.084c0.4202-0.0558,0.838-0.1249,1.2553-0.197
			c0.2054-0.0355,0.412-0.0648,0.6167-0.1042c0.6167-0.1187,1.2302-0.2523,1.8384-0.4064c0.0511-0.013,0.1011-0.0297,0.1521-0.0429
			c0.5581-0.1443,1.112-0.3031,1.6614-0.4768c0.2106-0.0666,0.4178-0.1431,0.627-0.214c0.3872-0.1312,0.7735-0.2649,1.1553-0.4107
			c0.2383-0.091,0.4735-0.1894,0.7096-0.286c0.3473-0.1422,0.6928-0.2882,1.0349-0.4425c0.2438-0.11,0.4858-0.224,0.7268-0.3401
			c0.1539-0.0742,0.3049-0.1541,0.4576-0.2308L15,45.6954V72.4104z"/>
		<path class="st12" d="M25.5278,70.3025c-0.3818,0.1458-0.7681,0.2795-1.1553,0.4107
			C24.7598,70.5819,25.1459,70.4483,25.5278,70.3025z"/>
		<path class="st12" d="M27.2722,69.574c-0.3421,0.1543-0.6876,0.3003-1.0349,0.4425
			C26.5847,69.8742,26.9301,69.7283,27.2722,69.574z"/>
		<path class="st12" d="M28.4643,69.0162l-0.0076-0.0131c-0.1527,0.0766-0.3037,0.1566-0.4576,0.2308
			C28.1533,69.1595,28.3112,69.093,28.4643,69.0162z"/>
		<path class="st12" d="M15,72.4257c0.1825-0.0058,0.3641-0.0234,0.5464-0.0324c-0.1819,0.009-0.3643,0.0112-0.5464,0.0171V72.4257z
			"/>
		<path class="st12" d="M17.4845,72.2384c-0.3837,0.0421-0.7679,0.0799-1.1533,0.1083
			C16.7166,72.3185,17.1006,72.2804,17.4845,72.2384z"/>
		<path class="st12" d="M23.7456,70.9271c-0.5493,0.1737-1.1033,0.3325-1.6614,0.4768
			C22.6423,71.2597,23.1963,71.1009,23.7456,70.9271z"/>
		<path class="st12" d="M19.477,71.9575c-0.4173,0.0721-0.8351,0.1412-1.2553,0.197C18.642,72.0987,19.0597,72.0296,19.477,71.9575z
			"/>
		<path class="st12" d="M21.9321,71.4468c-0.6082,0.1541-1.2217,0.2877-1.8384,0.4064
			C20.7104,71.7345,21.3239,71.601,21.9321,71.4468z"/>
		<line class="st13" x1="30.8064" y1="68.9081" x2="30.8058" y2="68.9084"/>
	</g>
</g>
</svg>
